<svg width="850" height="850" viewBox="0 0 850 850" fill="none" xmlns="http://www.w3.org/2000/svg">
<rect x="334.49" y="758.755" width="300" height="128" transform="rotate(-45 334.49 758.755)" fill="#A8B7BA"/>
<rect x="456.06" y="212.814" width="128" height="427.812" transform="rotate(-45 456.06 212.814)" fill="#A8B7BA"/>
<rect x="125.187" y="543.794" width="300" height="127.944" transform="rotate(-45 125.187 543.794)" fill="#A8B7BA"/>
<rect x="1.10986" y="425" width="128" height="481.637" transform="rotate(-45 1.10986 425)" fill="#A8B7BA"/>
<rect x="1.10986" y="425" width="428" height="127.944" transform="rotate(-45 1.10986 425)" fill="#A8B7BA"/>
<rect x="334.491" y="91.2454" width="128" height="127.944" transform="rotate(-45 334.491 91.2454)" fill="#A8B7BA"/>
<path d="M334.491 334.49L425 243.981L727.642 546.622L637.132 637.132L334.491 334.49Z" fill="#BCCFD2"/>
<rect x="635.429" y="457.816" width="174.409" height="128" transform="rotate(-45 635.429 457.816)" fill="#BCCFD2"/>
</svg>
